<svg width="1200" height="630" viewBox="0 0 1200 630" xmlns="http://www.w3.org/2000/svg">
  <defs>
    <linearGradient id="bg" x1="0" y1="0" x2="1200" y2="630" gradientUnits="userSpaceOnUse">
      <stop offset="0%" stop-color="#080f1e"/>
      <stop offset="100%" stop-color="#0d1f3c"/>
    </linearGradient>
    <linearGradient id="blue" x1="0" y1="0" x2="1" y2="0" gradientUnits="objectBoundingBox">
      <stop offset="0%" stop-color="#2563eb"/>
      <stop offset="100%" stop-color="#7c3aed"/>
    </linearGradient>
    <linearGradient id="blueH" x1="0" y1="0" x2="240" y2="0" gradientUnits="userSpaceOnUse">
      <stop offset="0%" stop-color="#2563eb"/>
      <stop offset="100%" stop-color="#7c3aed"/>
    </linearGradient>
    <linearGradient id="bar1" x1="0" y1="0" x2="190" y2="0" gradientUnits="userSpaceOnUse">
      <stop offset="0%" stop-color="#3b82f6"/>
      <stop offset="100%" stop-color="#6366f1"/>
    </linearGradient>
    <linearGradient id="bar2" x1="0" y1="0" x2="160" y2="0" gradientUnits="userSpaceOnUse">
      <stop offset="0%" stop-color="#8b5cf6"/>
      <stop offset="100%" stop-color="#a78bfa"/>
    </linearGradient>
    <linearGradient id="bar3" x1="0" y1="0" x2="130" y2="0" gradientUnits="userSpaceOnUse">
      <stop offset="0%" stop-color="#0ea5e9"/>
      <stop offset="100%" stop-color="#38bdf8"/>
    </linearGradient>
    <filter id="glow" x="-20%" y="-20%" width="140%" height="140%">
      <feGaussianBlur in="SourceGraphic" stdDeviation="18" result="blur"/>
      <feComposite in="SourceGraphic" in2="blur" operator="over"/>
    </filter>
    <clipPath id="dashClip">
      <rect x="650" y="70" width="500" height="490" rx="20"/>
    </clipPath>
  </defs>

  <!-- Background -->
  <rect width="1200" height="630" fill="url(#bg)"/>

  <!-- Subtle glow orbs -->
  <circle cx="1100" cy="100" r="260" fill="#2563eb" opacity="0.07" filter="url(#glow)"/>
  <circle cx="900" cy="580" r="200" fill="#7c3aed" opacity="0.07" filter="url(#glow)"/>
  <circle cx="60" cy="560" r="180" fill="#1d4ed8" opacity="0.06" filter="url(#glow)"/>
  <circle cx="200" cy="60" r="140" fill="#6366f1" opacity="0.05" filter="url(#glow)"/>

  <!-- Dot grid background (right side decoration) -->
  <g fill="#1e3a5f" opacity="0.35">
    <circle cx="660" cy="40" r="2"/><circle cx="700" cy="40" r="2"/><circle cx="740" cy="40" r="2"/><circle cx="780" cy="40" r="2"/><circle cx="820" cy="40" r="2"/><circle cx="860" cy="40" r="2"/><circle cx="900" cy="40" r="2"/><circle cx="940" cy="40" r="2"/><circle cx="980" cy="40" r="2"/><circle cx="1020" cy="40" r="2"/><circle cx="1060" cy="40" r="2"/><circle cx="1100" cy="40" r="2"/><circle cx="1140" cy="40" r="2"/><circle cx="1180" cy="40" r="2"/>
    <circle cx="660" cy="80" r="2"/><circle cx="700" cy="80" r="2"/><circle cx="740" cy="80" r="2"/><circle cx="780" cy="80" r="2"/><circle cx="820" cy="80" r="2"/>
    <circle cx="1100" cy="80" r="2"/><circle cx="1140" cy="80" r="2"/><circle cx="1180" cy="80" r="2"/>
  </g>

  <!-- ═══ LEFT CONTENT SECTION ═══ -->

  <!-- Left accent bar -->
  <rect x="72" y="95" width="5" height="90" rx="3" fill="url(#blueH)"/>

  <!-- AI Badge pill -->
  <rect x="88" y="95" width="148" height="26" rx="13" fill="#1e3a5f" opacity="0.7"/>
  <rect x="88" y="95" width="148" height="26" rx="13" fill="none" stroke="#3b82f6" stroke-width="1" opacity="0.6"/>
  <circle cx="106" cy="108" r="5" fill="#3b82f6"/>
  <text x="116" y="113" font-family="Arial, Helvetica, sans-serif" font-size="12" font-weight="700" fill="#93c5fd" letter-spacing="1.5">AI HIRING PLATFORM</text>

  <!-- Company name -->
  <text x="88" y="175" font-family="Arial Black, Arial, Helvetica, sans-serif" font-size="64" font-weight="900" fill="#ffffff" letter-spacing="-2">QualifyMe</text>

  <!-- Tagline -->
  <text x="88" y="230" font-family="Arial, Helvetica, sans-serif" font-size="26" font-weight="400" fill="#94a3b8">The Smarter Way to Hire</text>

  <!-- Description lines -->
  <text x="88" y="278" font-family="Arial, Helvetica, sans-serif" font-size="19" fill="#64748b">Automate screening. Qualify top candidates.</text>
  <text x="88" y="308" font-family="Arial, Helvetica, sans-serif" font-size="19" fill="#64748b">Cut hiring time by <tspan fill="#60a5fa" font-weight="700">70%</tspan> using AI.</text>

  <!-- Divider line -->
  <line x1="88" y1="338" x2="560" y2="338" stroke="#1e293b" stroke-width="1.5"/>

  <!-- ── Metric cards row ── -->

  <!-- Card 1: 70% Faster -->
  <rect x="88" y="358" width="148" height="100" rx="12" fill="#0f172a" stroke="#1e3a5f" stroke-width="1.5"/>
  <rect x="88" y="358" width="148" height="4" rx="2" fill="url(#blueH)"/>
  <text x="162" y="407" font-family="Arial Black, Arial, sans-serif" font-size="34" font-weight="900" fill="#60a5fa" text-anchor="middle">70%</text>
  <text x="162" y="428" font-family="Arial, sans-serif" font-size="13" fill="#94a3b8" text-anchor="middle" font-weight="600">Faster Hiring</text>
  <text x="162" y="447" font-family="Arial, sans-serif" font-size="11" fill="#475569" text-anchor="middle">vs. traditional methods</text>

  <!-- Card 2: AI Scoring -->
  <rect x="248" y="358" width="148" height="100" rx="12" fill="#0f172a" stroke="#1e3a5f" stroke-width="1.5"/>
  <rect x="248" y="358" width="148" height="4" rx="2" fill="#8b5cf6"/>
  <text x="322" y="407" font-family="Arial Black, Arial, sans-serif" font-size="34" font-weight="900" fill="#a78bfa" text-anchor="middle">AI</text>
  <text x="322" y="428" font-family="Arial, sans-serif" font-size="13" fill="#94a3b8" text-anchor="middle" font-weight="600">Smart Scoring</text>
  <text x="322" y="447" font-family="Arial, sans-serif" font-size="11" fill="#475569" text-anchor="middle">Zero human bias</text>

  <!-- Card 3: Match Rate -->
  <rect x="408" y="358" width="148" height="100" rx="12" fill="#0f172a" stroke="#1e3a5f" stroke-width="1.5"/>
  <rect x="408" y="358" width="148" height="4" rx="2" fill="#0ea5e9"/>
  <text x="482" y="407" font-family="Arial Black, Arial, sans-serif" font-size="34" font-weight="900" fill="#38bdf8" text-anchor="middle">98%</text>
  <text x="482" y="428" font-family="Arial, sans-serif" font-size="13" fill="#94a3b8" text-anchor="middle" font-weight="600">Match Accuracy</text>
  <text x="482" y="447" font-family="Arial, sans-serif" font-size="11" fill="#475569" text-anchor="middle">Candidate to role fit</text>

  <!-- Website URL at bottom -->
  <circle cx="100" cy="548" r="12" fill="#2563eb"/>
  <text x="100" y="553" font-family="Arial Black, Arial, sans-serif" font-size="13" fill="white" text-anchor="middle" font-weight="900">Q</text>
  <text x="120" y="554" font-family="Arial, Helvetica, sans-serif" font-size="16" fill="#475569" font-weight="500">qualifyme.ai</text>

  <!-- ═══ RIGHT SECTION: Dashboard Mockup ═══ -->

  <!-- Main dashboard card -->
  <rect x="650" y="70" width="500" height="490" rx="20" fill="#0f1e35" stroke="#1e3a5f" stroke-width="1.5"/>

  <!-- Dashboard top bar -->
  <rect x="650" y="70" width="500" height="44" rx="20" fill="#0a1628"/>
  <rect x="650" y="90" width="500" height="24" fill="#0a1628"/>
  <!-- Traffic light dots -->
  <circle cx="678" cy="92" r="6" fill="#ef4444" opacity="0.8"/>
  <circle cx="698" cy="92" r="6" fill="#f59e0b" opacity="0.8"/>
  <circle cx="718" cy="92" r="6" fill="#22c55e" opacity="0.8"/>
  <!-- Tab label -->
  <text x="950" y="97" font-family="Arial, sans-serif" font-size="12" fill="#475569" text-anchor="middle" font-weight="500">QualifyMe · Dashboard</text>

  <!-- Section: Candidate Scores -->
  <text x="678" y="140" font-family="Arial, sans-serif" font-size="13" fill="#94a3b8" font-weight="700" letter-spacing="0.5">CANDIDATE SCORES</text>
  <text x="1118" y="140" font-family="Arial, sans-serif" font-size="11" fill="#3b82f6" text-anchor="end">View all →</text>

  <!-- Candidate row 1 -->
  <circle cx="692" cy="170" r="14" fill="#1e3a8a"/>
  <text x="692" y="175" font-family="Arial Black, Arial, sans-serif" font-size="11" fill="#93c5fd" text-anchor="middle">SK</text>
  <text x="716" y="168" font-family="Arial, sans-serif" font-size="12" fill="#e2e8f0" font-weight="600">Sarah Kim</text>
  <text x="716" y="182" font-family="Arial, sans-serif" font-size="10" fill="#475569">Senior Frontend Engineer</text>
  <rect x="830" y="162" width="210" height="8" rx="4" fill="#1e3a5f"/>
  <rect x="830" y="162" width="190" height="8" rx="4" fill="url(#bar1)"/>
  <text x="1050" y="171" font-family="Arial, sans-serif" font-size="11" fill="#60a5fa" font-weight="700" text-anchor="end">91%</text>
  <!-- Top match badge -->
  <rect x="1060" y="158" width="60" height="18" rx="9" fill="#1d4ed8" opacity="0.3"/>
  <rect x="1060" y="158" width="60" height="18" rx="9" fill="none" stroke="#3b82f6" stroke-width="1"/>
  <text x="1090" y="171" font-family="Arial, sans-serif" font-size="9" fill="#93c5fd" text-anchor="middle" font-weight="700">TOP MATCH</text>

  <!-- Candidate row 2 -->
  <circle cx="692" cy="210" r="14" fill="#4c1d95"/>
  <text x="692" y="215" font-family="Arial Black, Arial, sans-serif" font-size="11" fill="#c4b5fd" text-anchor="middle">JL</text>
  <text x="716" y="208" font-family="Arial, sans-serif" font-size="12" fill="#e2e8f0" font-weight="600">James Lee</text>
  <text x="716" y="222" font-family="Arial, sans-serif" font-size="10" fill="#475569">Full Stack Developer</text>
  <rect x="830" y="202" width="210" height="8" rx="4" fill="#1e3a5f"/>
  <rect x="830" y="202" width="162" height="8" rx="4" fill="url(#bar2)"/>
  <text x="1050" y="211" font-family="Arial, sans-serif" font-size="11" fill="#a78bfa" font-weight="700" text-anchor="end">77%</text>

  <!-- Candidate row 3 -->
  <circle cx="692" cy="250" r="14" fill="#0c4a6e"/>
  <text x="692" y="255" font-family="Arial Black, Arial, sans-serif" font-size="11" fill="#7dd3fc" text-anchor="middle">PM</text>
  <text x="716" y="248" font-family="Arial, sans-serif" font-size="12" fill="#e2e8f0" font-weight="600">Priya Mehta</text>
  <text x="716" y="262" font-family="Arial, sans-serif" font-size="10" fill="#475569">Backend Engineer</text>
  <rect x="830" y="242" width="210" height="8" rx="4" fill="#1e3a5f"/>
  <rect x="830" y="242" width="138" height="8" rx="4" fill="url(#bar3)"/>
  <text x="1050" y="251" font-family="Arial, sans-serif" font-size="11" fill="#38bdf8" font-weight="700" text-anchor="end">66%</text>

  <!-- Divider -->
  <line x1="670" y1="280" x2="1130" y2="280" stroke="#1e293b" stroke-width="1"/>

  <!-- Section: AI Analysis -->
  <text x="678" y="308" font-family="Arial, sans-serif" font-size="13" fill="#94a3b8" font-weight="700" letter-spacing="0.5">AI ANALYSIS</text>

  <!-- Analysis grid: 2 cards -->
  <!-- Card: Technical Skills -->
  <rect x="670" y="320" width="218" height="110" rx="10" fill="#0a1628" stroke="#1e3a5f" stroke-width="1"/>
  <text x="690" y="344" font-family="Arial, sans-serif" font-size="11" fill="#64748b" font-weight="600">Technical Skills</text>
  <text x="690" y="372" font-family="Arial Black, Arial, sans-serif" font-size="28" fill="#60a5fa" font-weight="900">94</text>
  <text x="722" y="372" font-family="Arial, sans-serif" font-size="14" fill="#475569">/100</text>
  <text x="690" y="392" font-family="Arial, sans-serif" font-size="10" fill="#475569">React · TypeScript · APIs</text>
  <!-- Mini bar -->
  <rect x="690" y="405" width="180" height="6" rx="3" fill="#1e3a5f"/>
  <rect x="690" y="405" width="170" height="6" rx="3" fill="#3b82f6"/>
  <text x="878" y="412" font-family="Arial, sans-serif" font-size="9" fill="#60a5fa" text-anchor="end">94%</text>

  <!-- Card: Communication -->
  <rect x="902" y="320" width="218" height="110" rx="10" fill="#0a1628" stroke="#1e3a5f" stroke-width="1"/>
  <text x="922" y="344" font-family="Arial, sans-serif" font-size="11" fill="#64748b" font-weight="600">Communication</text>
  <text x="922" y="372" font-family="Arial Black, Arial, sans-serif" font-size="28" fill="#a78bfa" font-weight="900">88</text>
  <text x="954" y="372" font-family="Arial, sans-serif" font-size="14" fill="#475569">/100</text>
  <text x="922" y="392" font-family="Arial, sans-serif" font-size="10" fill="#475569">Clarity · Confidence · Tone</text>
  <!-- Mini bar -->
  <rect x="922" y="405" width="180" height="6" rx="3" fill="#1e3a5f"/>
  <rect x="922" y="405" width="158" height="6" rx="3" fill="#8b5cf6"/>
  <text x="1110" y="412" font-family="Arial, sans-serif" font-size="9" fill="#a78bfa" text-anchor="end">88%</text>

  <!-- AI Recommendation box -->
  <rect x="670" y="448" width="450" height="68" rx="10" fill="#0a1628" stroke="#1e3a5f" stroke-width="1"/>
  <!-- Left accent -->
  <rect x="670" y="448" width="4" height="68" rx="2" fill="#2563eb"/>
  <!-- AI chip -->
  <rect x="682" y="460" width="28" height="16" rx="4" fill="#1d4ed8" opacity="0.5"/>
  <text x="696" y="472" font-family="Arial, sans-serif" font-size="9" fill="#93c5fd" text-anchor="middle" font-weight="700">AI</text>
  <text x="716" y="472" font-family="Arial, sans-serif" font-size="11" fill="#93c5fd" font-weight="600">Recommendation</text>
  <text x="682" y="492" font-family="Arial, sans-serif" font-size="11" fill="#64748b">Sarah Kim matches 91% of job requirements.</text>
  <text x="682" y="507" font-family="Arial, sans-serif" font-size="11" fill="#64748b">Strong technical fit · Recommend for final round.</text>
  <!-- Check icon -->
  <circle cx="1108" cy="482" r="14" fill="#166534" opacity="0.4"/>
  <circle cx="1108" cy="482" r="14" fill="none" stroke="#22c55e" stroke-width="1.5"/>
  <text x="1108" y="488" font-family="Arial, sans-serif" font-size="14" fill="#22c55e" text-anchor="middle">✓</text>

  <!-- Bottom action row -->
  <rect x="670" y="530" width="130" height="34" rx="8" fill="#2563eb"/>
  <text x="735" y="552" font-family="Arial, sans-serif" font-size="13" fill="white" text-anchor="middle" font-weight="700">Send Invite</text>

  <rect x="812" y="530" width="130" height="34" rx="8" fill="#0a1628" stroke="#1e3a5f" stroke-width="1"/>
  <text x="877" y="552" font-family="Arial, sans-serif" font-size="13" fill="#94a3b8" text-anchor="middle">View Report</text>

  <rect x="954" y="530" width="166" height="34" rx="8" fill="#0a1628" stroke="#1e3a5f" stroke-width="1"/>
  <text x="1037" y="552" font-family="Arial, sans-serif" font-size="13" fill="#94a3b8" text-anchor="middle">Schedule Interview</text>
</svg>
